<?xml version="1.0" standalone="no"?>
<!DOCTYPE svg PUBLIC "-//W3C//DTD SVG 20001102//EN" "http://www.w3.org/TR/2000/CR-SVG-20001102/DTD/svg-20001102.dtd">
<svg xmlns="http://www.w3.org/2000/svg" width="708" x="8" y="0" height="392" id="/home/roy/Projects/nouveau/envytools/docs/hw/pm/nva3-pll_src-2" >
 <rect width="696" x="12" y="0" height="392" style="stroke:rgb(0,0,0);stroke-width:0;fill:rgb(255,255,255);" />
 <rect width="696" x="12" y="0" height="392" style="stroke:rgb(0,0,0);stroke-width:0;fill:rgb(255,255,255);" />
 <rect width="3" x="235" y="339" height="3" style="stroke:rgb(0,0,0);stroke-width:0.9;fill:rgb(0,0,0);" />
 <line style="stroke:rgb(0,0,0);stroke-width:1;fill:none;" y1="156" y2="156" x1="236" x2="244" />
 <line style="stroke:rgb(0,0,0);stroke-width:1;fill:none;" y1="236" y2="236" x1="588" x2="620" />
 <line style="stroke:rgb(0,0,0);stroke-width:1;fill:none;" y1="228" y2="228" x1="316" x2="348" />
 <line style="stroke:rgb(0,0,0);stroke-width:1;fill:none;" y1="84" y2="196" x1="156" x2="156" />
 <line style="stroke:rgb(0,0,0);stroke-width:1;fill:none;" y1="196" y2="196" x1="156" x2="204" />
 <line style="stroke:rgb(0,0,0);stroke-width:1;fill:none;" y1="196" y2="228" x1="204" x2="204" />
 <line style="stroke:rgb(0,0,0);stroke-width:1;fill:none;" y1="228" y2="228" x1="204" x2="236" />
 <line style="stroke:rgb(0,0,0);stroke-width:1;fill:none;" y1="84" y2="180" x1="188" x2="188" />
 <line style="stroke:rgb(0,0,0);stroke-width:1;fill:none;" y1="180" y2="180" x1="188" x2="220" />
 <line style="stroke:rgb(0,0,0);stroke-width:1;fill:none;" y1="180" y2="212" x1="220" x2="220" />
 <line style="stroke:rgb(0,0,0);stroke-width:1;fill:none;" y1="212" y2="212" x1="220" x2="236" />
 <line style="stroke:rgb(0,0,0);stroke-width:1;fill:none;" y1="324" y2="212" x1="316" x2="316" />
 <line style="stroke:rgb(0,0,0);stroke-width:1;fill:none;" y1="212" y2="212" x1="316" x2="348" />
 <line style="stroke:rgb(0,0,0);stroke-width:1;fill:none;" y1="364" y2="364" x1="188" x2="196" />
 <line style="stroke:rgb(0,0,0);stroke-width:1;fill:none;" y1="364" y2="340" x1="196" x2="196" />
 <line style="stroke:rgb(0,0,0);stroke-width:1;fill:none;" y1="340" y2="340" x1="196" x2="236" />
 <line style="stroke:rgb(0,0,0);stroke-width:1;fill:none;" y1="364" y2="364" x1="188" x2="196" />
 <line style="stroke:rgb(0,0,0);stroke-width:1;fill:none;" y1="364" y2="372" x1="196" x2="196" />
 <line style="stroke:rgb(0,0,0);stroke-width:1;fill:none;" y1="372" y2="372" x1="196" x2="436" />
 <line style="stroke:rgb(0,0,0);stroke-width:1;fill:none;" y1="372" y2="252" x1="436" x2="436" />
 <line style="stroke:rgb(0,0,0);stroke-width:1;fill:none;" y1="252" y2="252" x1="436" x2="508" />
 <line style="stroke:rgb(0,0,0);stroke-width:1;fill:none;" y1="324" y2="324" x1="188" x2="236" />
 <line style="stroke:rgb(0,0,0);stroke-width:1;fill:none;" y1="84" y2="292" x1="36" x2="36" />
 <line style="stroke:rgb(0,0,0);stroke-width:1;fill:none;" y1="292" y2="292" x1="36" x2="196" />
 <line style="stroke:rgb(0,0,0);stroke-width:1;fill:none;" y1="292" y2="308" x1="196" x2="196" />
 <line style="stroke:rgb(0,0,0);stroke-width:1;fill:none;" y1="308" y2="308" x1="196" x2="236" />
 <line style="stroke:rgb(0,0,0);stroke-width:1;fill:none;" y1="84" y2="220" x1="484" x2="484" />
 <line style="stroke:rgb(0,0,0);stroke-width:1;fill:none;" y1="220" y2="220" x1="484" x2="508" />
 <line style="stroke:rgb(0,0,0);stroke-width:1;fill:none;" y1="148" y2="148" x1="292" x2="300" />
 <line style="stroke:rgb(0,0,0);stroke-width:1;fill:none;" y1="148" y2="180" x1="300" x2="300" />
 <line style="stroke:rgb(0,0,0);stroke-width:1;fill:none;" y1="180" y2="180" x1="300" x2="348" />
 <line style="stroke:rgb(0,0,0);stroke-width:1;fill:none;" y1="84" y2="220" x1="604" x2="604" />
 <line style="stroke:rgb(0,0,0);stroke-width:1;fill:none;" y1="220" y2="220" x1="604" x2="620" />
 <line style="stroke:rgb(0,0,0);stroke-width:1;fill:none;" y1="84" y2="228" x1="108" x2="108" />
 <line style="stroke:rgb(0,0,0);stroke-width:1;fill:none;" y1="228" y2="228" x1="108" x2="124" />
 <line style="stroke:rgb(0,0,0);stroke-width:1;fill:none;" y1="236" y2="236" x1="100" x2="108" />
 <line style="stroke:rgb(0,0,0);stroke-width:1;fill:none;" y1="236" y2="244" x1="108" x2="108" />
 <line style="stroke:rgb(0,0,0);stroke-width:1;fill:none;" y1="244" y2="244" x1="108" x2="124" />
 <line style="stroke:rgb(0,0,0);stroke-width:1;fill:none;" y1="268" y2="268" x1="100" x2="108" />
 <line style="stroke:rgb(0,0,0);stroke-width:1;fill:none;" y1="268" y2="260" x1="108" x2="108" />
 <line style="stroke:rgb(0,0,0);stroke-width:1;fill:none;" y1="260" y2="260" x1="108" x2="124" />
 <line style="stroke:rgb(0,0,0);stroke-width:1;fill:none;" y1="180" y2="180" x1="428" x2="436" />
 <line style="stroke:rgb(0,0,0);stroke-width:1;fill:none;" y1="180" y2="236" x1="436" x2="436" />
 <line style="stroke:rgb(0,0,0);stroke-width:1;fill:none;" y1="236" y2="236" x1="436" x2="508" />
 <line style="stroke:rgb(0,0,0);stroke-width:1;fill:none;" y1="84" y2="92" x1="308" x2="308" />
 <line style="stroke:rgb(0,0,0);stroke-width:1;fill:none;" y1="92" y2="92" x1="308" x2="316" />
 <line style="stroke:rgb(0,0,0);stroke-width:1;fill:none;" y1="92" y2="164" x1="316" x2="316" />
 <line style="stroke:rgb(0,0,0);stroke-width:1;fill:none;" y1="164" y2="164" x1="316" x2="348" />
 <line style="stroke:rgb(0,0,0);stroke-width:1;fill:none;" y1="84" y2="148" x1="340" x2="340" />
 <line style="stroke:rgb(0,0,0);stroke-width:1;fill:none;" y1="148" y2="148" x1="340" x2="348" />
 <line style="stroke:rgb(0,0,0);stroke-width:1;fill:none;" y1="84" y2="100" x1="236" x2="236" />
 <line style="stroke:rgb(0,0,0);stroke-width:1;fill:none;" y1="132" y2="140" x1="236" x2="236" />
 <line style="stroke:rgb(0,0,0);stroke-width:1;fill:none;" y1="140" y2="140" x1="236" x2="244" />
 <line style="stroke:rgb(0,0,0);stroke-width:1;fill:none;" y1="244" y2="244" x1="204" x2="236" />
 <path style="stroke:rgb(0,0,0);stroke-width:0.9;fill:rgb(247,247,255);" d="M 628 244 A 32 240 -90 0 0 628 212z" />
 <line transform="matrix(1,0,0,1,620,220)" style="stroke:rgb(0,0,0);stroke-width:1;fill:rgb(0,0,0);" y1="0" y2="0" x1="0" x2="8" />
 <line transform="matrix(1,0,0,1,620,236)" style="stroke:rgb(0,0,0);stroke-width:1;fill:rgb(0,0,0);" y1="0" y2="0" x1="0" x2="8" />
 <line transform="matrix(-1,0,0,-1,668,228)" style="stroke:rgb(0,0,0);stroke-width:1;fill:rgb(0,0,0);" y1="0" y2="0" x1="0" x2="8" />
 <polygon points="516 204 579 204 579 267 516 267" transform="matrix(1,0,0,1,0.000214684,7.69622e-05)" style="stroke:rgb(0,0,0);stroke-width:0.9;fill:rgb(247,247,255);" />
 <polyline points="516 204 579 204 579 267 516 267" transform="matrix(1,0,0,1,0.000214684,7.69622e-05)" style="stroke:rgb(0,0,0);stroke-width:0.9;fill:none;" />
 <line transform="matrix(1,0,0,1,508,220)" style="stroke:rgb(0,0,0);stroke-width:1;fill:rgb(0,0,0);" y1="0" y2="0" x1="0" x2="8" />
 <line transform="matrix(-0.999999,0,0,-0.999999,588,236)" style="stroke:rgb(0,0,0);stroke-width:1;fill:rgb(0,0,0);" y1="0" y2="0" x1="0" x2="8" />
 <line transform="matrix(0.999999,0,0,0.999999,508,236)" style="stroke:rgb(0,0,0);stroke-width:1;fill:rgb(0,0,0);" y1="0" y2="0" x1="0" x2="8" />
 <line transform="matrix(0.999999,0,0,0.999999,508,252)" style="stroke:rgb(0,0,0);stroke-width:1;fill:rgb(0,0,0);" y1="0" y2="0" x1="0" x2="8" />
 <text x="530" y="223" transform="matrix(0.999999,0,0,0.999999,0.000452322,0.000183179)" style="fill:rgb(0,0,0);stroke-width:0;font-size:10px;font-style:normal;font-weight:400;font-family:Sans Serif;" text-anchor="middle" >A0</text>
 <text x="564" y="239" transform="matrix(0.999999,0,0,0.999999,0.000452322,0.000183179)" style="fill:rgb(0,0,0);stroke-width:0;font-size:8px;font-style:normal;font-weight:400;font-family:Sans Serif;" text-anchor="middle" >OUT</text>
 <text x="530" y="239" transform="matrix(0.999999,0,0,0.999999,0.000452322,0.000183179)" style="fill:rgb(0,0,0);stroke-width:0;font-size:10px;font-style:normal;font-weight:400;font-family:Sans Serif;" text-anchor="middle" >X0</text>
 <text x="530" y="255" transform="matrix(0.999999,0,0,0.999999,0.000452322,0.000183179)" style="fill:rgb(0,0,0);stroke-width:0;font-size:10px;font-style:normal;font-weight:400;font-family:Sans Serif;" text-anchor="middle" >X1</text>
 <polygon points="356 132 419 132 419 243 356 243" transform="matrix(0.999999,0,0,0.999999,0.000452322,0.000183179)" style="stroke:rgb(0,0,0);stroke-width:0.9;fill:rgb(247,247,255);" />
 <polyline points="356 132 419 132 419 243 356 243" transform="matrix(0.999999,0,0,0.999999,0.000452322,0.000183179)" style="stroke:rgb(0,0,0);stroke-width:0.9;fill:none;" />
 <line transform="matrix(0.999999,0,0,0.999999,348,148)" style="stroke:rgb(0,0,0);stroke-width:1;fill:rgb(0,0,0);" y1="0" y2="0" x1="0" x2="8" />
 <line transform="matrix(0.999999,0,0,0.999999,348,164)" style="stroke:rgb(0,0,0);stroke-width:1;fill:rgb(0,0,0);" y1="0" y2="0" x1="0" x2="8" />
 <line transform="matrix(-0.999999,0,0,-0.999999,428,180)" style="stroke:rgb(0,0,0);stroke-width:1;fill:rgb(0,0,0);" y1="0" y2="0" x1="0" x2="8" />
 <line transform="matrix(0.999999,0,0,0.999999,348,180)" style="stroke:rgb(0,0,0);stroke-width:1;fill:rgb(0,0,0);" y1="0" y2="0" x1="0" x2="8" />
 <line transform="matrix(0.999999,0,0,0.999999,348,196)" style="stroke:rgb(0,0,0);stroke-width:1;fill:rgb(0,0,0);" y1="0" y2="0" x1="0" x2="8" />
 <line transform="matrix(0.999999,0,0,0.999999,348,212)" style="stroke:rgb(0,0,0);stroke-width:1;fill:rgb(0,0,0);" y1="0" y2="0" x1="0" x2="8" />
 <line transform="matrix(0.999998,0,0,0.999998,348,228)" style="stroke:rgb(0,0,0);stroke-width:1;fill:rgb(0,0,0);" y1="0" y2="0" x1="0" x2="8" />
 <text x="370" y="151" transform="matrix(0.999998,0,0,0.999998,0.000735416,0.000330352)" style="fill:rgb(0,0,0);stroke-width:0;font-size:10px;font-style:normal;font-weight:400;font-family:Sans Serif;" text-anchor="middle" >A0</text>
 <text x="370" y="167" transform="matrix(0.999998,0,0,0.999998,0.000735416,0.000330352)" style="fill:rgb(0,0,0);stroke-width:0;font-size:10px;font-style:normal;font-weight:400;font-family:Sans Serif;" text-anchor="middle" >A1</text>
 <text x="399" y="183" transform="matrix(0.999998,0,0,0.999998,0.000735416,0.000330352)" style="fill:rgb(0,0,0);stroke-width:0;font-size:8px;font-style:normal;font-weight:400;font-family:Sans Serif;" text-anchor="middle" >VCO_OUT</text>
 <text x="370" y="183" transform="matrix(0.999998,0,0,0.999998,0.000735416,0.000330352)" style="fill:rgb(0,0,0);stroke-width:0;font-size:10px;font-style:normal;font-weight:400;font-family:Sans Serif;" text-anchor="middle" >X0</text>
 <text x="370" y="199" transform="matrix(0.999998,0,0,0.999998,0.000735416,0.000330352)" style="fill:rgb(0,0,0);stroke-width:0;font-size:10px;font-style:normal;font-weight:400;font-family:Sans Serif;" text-anchor="middle" >X1</text>
 <text x="370" y="215" transform="matrix(0.999998,0,0,0.999998,0.000735416,0.000330352)" style="fill:rgb(0,0,0);stroke-width:0;font-size:10px;font-style:normal;font-weight:400;font-family:Sans Serif;" text-anchor="middle" >X2</text>
 <text x="370" y="231" transform="matrix(0.999998,0,0,0.999998,0.000735416,0.000330352)" style="fill:rgb(0,0,0);stroke-width:0;font-size:10px;font-style:normal;font-weight:400;font-family:Sans Serif;" text-anchor="middle" >X3</text>
 <path transform="matrix(0.999998,0,0,0.999998,0.000735416,0.000330352)" style="stroke:rgb(0,0,0);stroke-width:0.9;fill:rgb(247,247,255);" d="M 252 164 A 32 240 -90 0 0 252 132z" />
 <line transform="matrix(0.999998,0,0,0.999998,244,140)" style="stroke:rgb(0,0,0);stroke-width:1;fill:rgb(0,0,0);" y1="0" y2="0" x1="0" x2="8" />
 <line transform="matrix(0.999998,0,0,0.999998,244,156)" style="stroke:rgb(0,0,0);stroke-width:1;fill:rgb(0,0,0);" y1="0" y2="0" x1="0" x2="8" />
 <line transform="matrix(-0.999998,0,0,-0.999998,292,148)" style="stroke:rgb(0,0,0);stroke-width:1;fill:rgb(0,0,0);" y1="0" y2="0" x1="0" x2="8" />
 <line transform="matrix(0.999998,0,0,0.999998,0.00082318,0.00038031)" style="stroke:rgb(0,0,0);stroke-width:1;fill:none;" y1="228" y2="228" x1="665" x2="665" />
 <polygon points="132 212 195 212 195 275 132 275" transform="matrix(0.999998,0,0,0.999998,0.00082318,0.00038031)" style="stroke:rgb(0,0,0);stroke-width:0.9;fill:rgb(247,247,255);" />
 <polyline points="132 212 195 212 195 275 132 275" transform="matrix(0.999998,0,0,0.999998,0.00082318,0.00038031)" style="stroke:rgb(0,0,0);stroke-width:0.9;fill:none;" />
 <line transform="matrix(0.999998,0,0,0.999998,124.001,228)" style="stroke:rgb(0,0,0);stroke-width:1;fill:rgb(0,0,0);" y1="0" y2="0" x1="0" x2="8" />
 <line transform="matrix(-0.999998,0,0,-0.999998,204,244)" style="stroke:rgb(0,0,0);stroke-width:1;fill:rgb(0,0,0);" y1="0" y2="0" x1="0" x2="8" />
 <line transform="matrix(0.999998,0,0,0.999998,124.001,244)" style="stroke:rgb(0,0,0);stroke-width:1;fill:rgb(0,0,0);" y1="0" y2="0" x1="0" x2="8" />
 <line transform="matrix(0.999998,0,0,0.999998,124.001,260)" style="stroke:rgb(0,0,0);stroke-width:1;fill:rgb(0,0,0);" y1="0" y2="0" x1="0" x2="8" />
 <text x="146" y="231" transform="matrix(0.999998,0,0,0.999998,0.00088799,0.000490127)" style="fill:rgb(0,0,0);stroke-width:0;font-size:10px;font-style:normal;font-weight:400;font-family:Sans Serif;" text-anchor="middle" >A0</text>
 <text x="175" y="247" transform="matrix(0.999998,0,0,0.999998,0.00088799,0.000490127)" style="fill:rgb(0,0,0);stroke-width:0;font-size:8px;font-style:normal;font-weight:400;font-family:Sans Serif;" text-anchor="middle" >VCO_IN</text>
 <text x="146" y="247" transform="matrix(0.999998,0,0,0.999998,0.00088799,0.000490127)" style="fill:rgb(0,0,0);stroke-width:0;font-size:10px;font-style:normal;font-weight:400;font-family:Sans Serif;" text-anchor="middle" >X0</text>
 <text x="146" y="263" transform="matrix(0.999998,0,0,0.999998,0.00088799,0.000490127)" style="fill:rgb(0,0,0);stroke-width:0;font-size:10px;font-style:normal;font-weight:400;font-family:Sans Serif;" text-anchor="middle" >X1</text>
 <circle cx="684" cy="228" transform="matrix(0.999998,0,0,0.999998,0.00088799,0.000490127)" style="stroke:rgb(0,0,0);stroke-width:0.9;fill:rgb(255,255,255);" r="8" />
 <line transform="matrix(0.999998,0,0,0.999998,667.999,228)" style="stroke:rgb(0,0,0);stroke-width:1;fill:rgb(0,0,0);" y1="0" y2="0" x1="0" x2="8" />
 <rect width="32" x="204" y="148" height="16" transform="matrix(0.999998,0,0,0.999998,0.000963152,0.000515781)" style="stroke:rgb(0,0,0);stroke-width:0.9;fill:rgb(247,247,255);" />
 <line transform="matrix(0.999998,0,0,0.999998,0.000963152,0.000515781)" style="stroke:rgb(0,0,0);stroke-width:0.900002;fill:rgb(247,247,255);" y1="156" y2="152" x1="210" x2="210" />
 <line transform="matrix(0.999998,0,0,0.999998,0.000963152,0.000515781)" style="stroke:rgb(0,0,0);stroke-width:0.900002;fill:rgb(247,247,255);" y1="152" y2="152" x1="210" x2="214" />
 <line transform="matrix(0.999998,0,0,0.999998,0.000963152,0.000515781)" style="stroke:rgb(0,0,0);stroke-width:0.900002;fill:rgb(247,247,255);" y1="152" y2="160" x1="214" x2="214" />
 <line transform="matrix(0.999998,0,0,0.999998,0.000963152,0.000515781)" style="stroke:rgb(0,0,0);stroke-width:0.900002;fill:rgb(247,247,255);" y1="160" y2="160" x1="214" x2="218" />
 <line transform="matrix(0.999998,0,0,0.999998,0.000963152,0.000515781)" style="stroke:rgb(0,0,0);stroke-width:0.900002;fill:rgb(247,247,255);" y1="160" y2="152" x1="218" x2="218" />
 <line transform="matrix(0.999998,0,0,0.999998,0.000963152,0.000515781)" style="stroke:rgb(0,0,0);stroke-width:0.900002;fill:rgb(247,247,255);" y1="152" y2="152" x1="218" x2="222" />
 <line transform="matrix(0.999998,0,0,0.999998,0.000963152,0.000515781)" style="stroke:rgb(0,0,0);stroke-width:0.900002;fill:rgb(247,247,255);" y1="152" y2="160" x1="222" x2="222" />
 <line transform="matrix(0.999998,0,0,0.999998,0.000963152,0.000515781)" style="stroke:rgb(0,0,0);stroke-width:0.900002;fill:rgb(247,247,255);" y1="160" y2="160" x1="222" x2="226" />
 <line transform="matrix(0.999998,0,0,0.999998,0.000963152,0.000515781)" style="stroke:rgb(0,0,0);stroke-width:0.900002;fill:rgb(247,247,255);" y1="160" y2="152" x1="226" x2="226" />
 <line transform="matrix(0.999998,0,0,0.999998,0.000963152,0.000515781)" style="stroke:rgb(0,0,0);stroke-width:0.900002;fill:rgb(247,247,255);" y1="152" y2="152" x1="226" x2="230" />
 <line transform="matrix(0.999998,0,0,0.999998,0.000963152,0.000515781)" style="stroke:rgb(0,0,0);stroke-width:0.900002;fill:rgb(247,247,255);" y1="152" y2="156" x1="230" x2="230" />
 <line transform="matrix(-0.999997,0,0,-0.999997,244,156)" style="stroke:rgb(0,0,0);stroke-width:1;fill:rgb(0,0,0);" y1="0" y2="0" x1="0" x2="8" />
 <text x="219" y="143" transform="matrix(0.999997,0,0,0.999997,0.000990607,0.000533334)" style="fill:rgb(0,0,0);stroke-width:0;font-size:10px;font-style:normal;font-weight:400;font-family:Sans Serif;" text-anchor="middle" >Crystal</text>
 <rect width="32" x="60" y="228" height="16" transform="matrix(0.999997,0,0,0.999997,0.000990607,0.000533334)" style="stroke:rgb(0,0,0);stroke-width:0.9;fill:rgb(247,247,255);" />
 <line transform="matrix(0.999997,0,0,0.999997,0.000990607,0.000533334)" style="stroke:rgb(0,0,0);stroke-width:0.900002;fill:rgb(247,247,255);" y1="236" y2="232" x1="66" x2="66" />
 <line transform="matrix(0.999997,0,0,0.999997,0.000990607,0.000533334)" style="stroke:rgb(0,0,0);stroke-width:0.900002;fill:rgb(247,247,255);" y1="232" y2="232" x1="66" x2="70" />
 <line transform="matrix(0.999997,0,0,0.999997,0.000990607,0.000533334)" style="stroke:rgb(0,0,0);stroke-width:0.900002;fill:rgb(247,247,255);" y1="232" y2="240" x1="70" x2="70" />
 <line transform="matrix(0.999997,0,0,0.999997,0.000990607,0.000533334)" style="stroke:rgb(0,0,0);stroke-width:0.900002;fill:rgb(247,247,255);" y1="240" y2="240" x1="70" x2="74" />
 <line transform="matrix(0.999997,0,0,0.999997,0.000990607,0.000533334)" style="stroke:rgb(0,0,0);stroke-width:0.900002;fill:rgb(247,247,255);" y1="240" y2="232" x1="74" x2="74" />
 <line transform="matrix(0.999997,0,0,0.999997,0.000990607,0.000533334)" style="stroke:rgb(0,0,0);stroke-width:0.900002;fill:rgb(247,247,255);" y1="232" y2="232" x1="74" x2="78" />
 <line transform="matrix(0.999997,0,0,0.999997,0.000990607,0.000533334)" style="stroke:rgb(0,0,0);stroke-width:0.900002;fill:rgb(247,247,255);" y1="232" y2="240" x1="78" x2="78" />
 <line transform="matrix(0.999997,0,0,0.999997,0.000990607,0.000533334)" style="stroke:rgb(0,0,0);stroke-width:0.900002;fill:rgb(247,247,255);" y1="240" y2="240" x1="78" x2="82" />
 <line transform="matrix(0.999997,0,0,0.999997,0.000990607,0.000533334)" style="stroke:rgb(0,0,0);stroke-width:0.900002;fill:rgb(247,247,255);" y1="240" y2="232" x1="82" x2="82" />
 <line transform="matrix(0.999997,0,0,0.999997,0.000990607,0.000533334)" style="stroke:rgb(0,0,0);stroke-width:0.900002;fill:rgb(247,247,255);" y1="232" y2="232" x1="82" x2="86" />
 <line transform="matrix(0.999997,0,0,0.999997,0.000990607,0.000533334)" style="stroke:rgb(0,0,0);stroke-width:0.900002;fill:rgb(247,247,255);" y1="232" y2="236" x1="86" x2="86" />
 <line transform="matrix(-0.999997,0,0,-0.999997,100.001,236)" style="stroke:rgb(0,0,0);stroke-width:1;fill:rgb(0,0,0);" y1="0" y2="0" x1="0" x2="8" />
 <text x="76" y="223" transform="matrix(0.999997,0,0,0.999997,0.00100186,0.000559888)" style="fill:rgb(0,0,0);stroke-width:0;font-size:10px;font-style:normal;font-weight:400;font-family:Sans Serif;" text-anchor="middle" >RPLL1</text>
 <rect width="32" x="60" y="260" height="16" transform="matrix(0.999997,0,0,0.999997,0.00100186,0.000559888)" style="stroke:rgb(0,0,0);stroke-width:0.9;fill:rgb(247,247,255);" />
 <line transform="matrix(0.999997,0,0,0.999997,0.00100186,0.000559888)" style="stroke:rgb(0,0,0);stroke-width:0.900002;fill:rgb(247,247,255);" y1="268" y2="264" x1="66" x2="66" />
 <line transform="matrix(0.999997,0,0,0.999997,0.00100186,0.000559888)" style="stroke:rgb(0,0,0);stroke-width:0.900002;fill:rgb(247,247,255);" y1="264" y2="264" x1="66" x2="70" />
 <line transform="matrix(0.999997,0,0,0.999997,0.00100186,0.000559888)" style="stroke:rgb(0,0,0);stroke-width:0.900002;fill:rgb(247,247,255);" y1="264" y2="272" x1="70" x2="70" />
 <line transform="matrix(0.999997,0,0,0.999997,0.00100186,0.000559888)" style="stroke:rgb(0,0,0);stroke-width:0.900002;fill:rgb(247,247,255);" y1="272" y2="272" x1="70" x2="74" />
 <line transform="matrix(0.999997,0,0,0.999997,0.00100186,0.000559888)" style="stroke:rgb(0,0,0);stroke-width:0.900002;fill:rgb(247,247,255);" y1="272" y2="264" x1="74" x2="74" />
 <line transform="matrix(0.999997,0,0,0.999997,0.00100186,0.000559888)" style="stroke:rgb(0,0,0);stroke-width:0.900002;fill:rgb(247,247,255);" y1="264" y2="264" x1="74" x2="78" />
 <line transform="matrix(0.999997,0,0,0.999997,0.00100186,0.000559888)" style="stroke:rgb(0,0,0);stroke-width:0.900002;fill:rgb(247,247,255);" y1="264" y2="272" x1="78" x2="78" />
 <line transform="matrix(0.999997,0,0,0.999997,0.00100186,0.000559888)" style="stroke:rgb(0,0,0);stroke-width:0.900002;fill:rgb(247,247,255);" y1="272" y2="272" x1="78" x2="82" />
 <line transform="matrix(0.999997,0,0,0.999997,0.00100186,0.000559888)" style="stroke:rgb(0,0,0);stroke-width:0.900002;fill:rgb(247,247,255);" y1="272" y2="264" x1="82" x2="82" />
 <line transform="matrix(0.999997,0,0,0.999997,0.00100186,0.000559888)" style="stroke:rgb(0,0,0);stroke-width:0.900002;fill:rgb(247,247,255);" y1="264" y2="264" x1="82" x2="86" />
 <line transform="matrix(0.999997,0,0,0.999997,0.00100186,0.000559888)" style="stroke:rgb(0,0,0);stroke-width:0.900002;fill:rgb(247,247,255);" y1="264" y2="268" x1="86" x2="86" />
 <line transform="matrix(-0.999997,0,0,-0.999997,100.001,268)" style="stroke:rgb(0,0,0);stroke-width:1;fill:rgb(0,0,0);" y1="0" y2="0" x1="0" x2="8" />
 <text x="76" y="255" transform="matrix(0.999997,0,0,0.999997,0.00101311,0.000590043)" style="fill:rgb(0,0,0);stroke-width:0;font-size:10px;font-style:normal;font-weight:400;font-family:Sans Serif;" text-anchor="middle" >RPLL2</text>
 <g style="stroke:rgb(0,0,0);stroke-width:0.9;fill:rgb(247,247,255);" >
  <circle cx="604" cy="68" transform="matrix(0,-0.999997,0.999997,0,536,671.999)" style="stroke:rgb(0,0,0);stroke-width:0.9;fill:rgb(247,247,255);" r="8" />
  <line transform="matrix(0,-0.999997,0.999997,0,536,671.999)" style="stroke:rgb(0,0,0);stroke-width:inf;fill:rgb(247,247,255);" y1="66" y2="66" x1="599" x2="608" />
  <line transform="matrix(0,-0.999997,0.999997,0,536,671.999)" style="stroke:rgb(0,0,0);stroke-width:inf;fill:rgb(247,247,255);" y1="63" y2="66" x1="604" x2="608" />
  <line transform="matrix(0,-0.999997,0.999997,0,536,671.999)" style="stroke:rgb(0,0,0);stroke-width:inf;fill:rgb(247,247,255);" y1="69" y2="69" x1="599" x2="608" />
  <line transform="matrix(0,-0.999997,0.999997,0,536,671.999)" style="stroke:rgb(0,0,0);stroke-width:inf;fill:rgb(247,247,255);" y1="69" y2="72" x1="599" x2="604" />
 </g>
 <line transform="matrix(0,-0.999997,0.999997,0,603.999,84.0004)" style="stroke:rgb(0,0,0);stroke-width:inf;fill:rgb(0,0,0);" y1="0" y2="0" x1="0" x2="8" />
 <text x="620" y="74" transform="matrix(0,-0.999997,0.999997,0,549.999,687.999)" style="fill:rgb(0,0,0);stroke-width:0;font-size:10px;font-style:normal;font-weight:400;font-family:Sans Serif;" text-anchor="middle" >ENABLE</text>
 <g style="stroke:rgb(0,0,0);stroke-width:0.9;fill:rgb(247,247,255);" >
  <circle cx="108" cy="68" transform="matrix(0,-0.999997,0.999997,0,40.001,176)" style="stroke:rgb(0,0,0);stroke-width:0.9;fill:rgb(247,247,255);" r="8" />
  <line transform="matrix(0,-0.999997,0.999997,0,40.001,176)" style="stroke:rgb(0,0,0);stroke-width:inf;fill:rgb(247,247,255);" y1="66" y2="66" x1="103" x2="112" />
  <line transform="matrix(0,-0.999997,0.999997,0,40.001,176)" style="stroke:rgb(0,0,0);stroke-width:inf;fill:rgb(247,247,255);" y1="63" y2="66" x1="108" x2="112" />
  <line transform="matrix(0,-0.999997,0.999997,0,40.001,176)" style="stroke:rgb(0,0,0);stroke-width:inf;fill:rgb(247,247,255);" y1="69" y2="69" x1="103" x2="112" />
  <line transform="matrix(0,-0.999997,0.999997,0,40.001,176)" style="stroke:rgb(0,0,0);stroke-width:inf;fill:rgb(247,247,255);" y1="69" y2="72" x1="103" x2="108" />
 </g>
 <line transform="matrix(0,-0.999997,0.999997,0,108.001,84.0004)" style="stroke:rgb(0,0,0);stroke-width:inf;fill:rgb(0,0,0);" y1="0" y2="0" x1="0" x2="8" />
 <text x="124" y="74" transform="matrix(0,-0.999997,0.999997,0,54.001,192)" style="fill:rgb(0,0,0);stroke-width:0;font-size:10px;font-style:normal;font-weight:400;font-family:Sans Serif;" text-anchor="middle" >VCO_SRC</text>
 <g style="stroke:rgb(0,0,0);stroke-width:0.9;fill:rgb(247,247,255);" >
  <circle cx="236" cy="68" transform="matrix(0,-0.999997,0.999997,0,168.001,304)" style="stroke:rgb(0,0,0);stroke-width:0.9;fill:rgb(247,247,255);" r="8" />
  <line transform="matrix(0,-0.999997,0.999997,0,168.001,304)" style="stroke:rgb(0,0,0);stroke-width:inf;fill:rgb(247,247,255);" y1="66" y2="66" x1="231" x2="240" />
  <line transform="matrix(0,-0.999997,0.999997,0,168.001,304)" style="stroke:rgb(0,0,0);stroke-width:inf;fill:rgb(247,247,255);" y1="63" y2="66" x1="236" x2="240" />
  <line transform="matrix(0,-0.999997,0.999997,0,168.001,304)" style="stroke:rgb(0,0,0);stroke-width:inf;fill:rgb(247,247,255);" y1="69" y2="69" x1="231" x2="240" />
  <line transform="matrix(0,-0.999997,0.999997,0,168.001,304)" style="stroke:rgb(0,0,0);stroke-width:inf;fill:rgb(247,247,255);" y1="69" y2="72" x1="231" x2="236" />
 </g>
 <line transform="matrix(0,-0.999997,0.999997,0,236,84.0004)" style="stroke:rgb(0,0,0);stroke-width:inf;fill:rgb(0,0,0);" y1="0" y2="0" x1="0" x2="8" />
 <text x="252" y="74" transform="matrix(0,-0.999997,0.999997,0,182.001,320)" style="fill:rgb(0,0,0);stroke-width:0;font-size:10px;font-style:normal;font-weight:400;font-family:Sans Serif;" text-anchor="middle" >CRYSTAL_DISABLE</text>
 <g style="stroke:rgb(0,0,0);stroke-width:0.9;fill:rgb(247,247,255);" >
  <circle cx="340" cy="68" transform="matrix(0,-0.999996,0.999996,0,272,407.999)" style="stroke:rgb(0,0,0);stroke-width:0.9;fill:rgb(247,247,255);" r="8" />
  <line transform="matrix(0,-0.999996,0.999996,0,272,407.999)" style="stroke:rgb(0,0,0);stroke-width:inf;fill:rgb(247,247,255);" y1="66" y2="66" x1="335" x2="344" />
  <line transform="matrix(0,-0.999996,0.999996,0,272,407.999)" style="stroke:rgb(0,0,0);stroke-width:inf;fill:rgb(247,247,255);" y1="63" y2="66" x1="340" x2="344" />
  <line transform="matrix(0,-0.999996,0.999996,0,272,407.999)" style="stroke:rgb(0,0,0);stroke-width:inf;fill:rgb(247,247,255);" y1="69" y2="69" x1="335" x2="344" />
  <line transform="matrix(0,-0.999996,0.999996,0,272,407.999)" style="stroke:rgb(0,0,0);stroke-width:inf;fill:rgb(247,247,255);" y1="69" y2="72" x1="335" x2="340" />
 </g>
 <line transform="matrix(0,-0.999996,0.999996,0,340,84.0003)" style="stroke:rgb(0,0,0);stroke-width:inf;fill:rgb(0,0,0);" y1="0" y2="0" x1="0" x2="8" />
 <text x="356" y="74" transform="matrix(0,-0.999996,0.999996,0,286,423.999)" style="fill:rgb(0,0,0);stroke-width:0;font-size:10px;font-style:normal;font-weight:400;font-family:Sans Serif;" text-anchor="middle" >VCO_OUT[0]</text>
 <g style="stroke:rgb(0,0,0);stroke-width:0.9;fill:rgb(247,247,255);" >
  <circle cx="308" cy="68" transform="matrix(0,-0.999996,0.999996,0,240,375.999)" style="stroke:rgb(0,0,0);stroke-width:0.9;fill:rgb(247,247,255);" r="8" />
  <line transform="matrix(0,-0.999996,0.999996,0,240,375.999)" style="stroke:rgb(0,0,0);stroke-width:inf;fill:rgb(247,247,255);" y1="66" y2="66" x1="303" x2="312" />
  <line transform="matrix(0,-0.999996,0.999996,0,240,375.999)" style="stroke:rgb(0,0,0);stroke-width:inf;fill:rgb(247,247,255);" y1="63" y2="66" x1="308" x2="312" />
  <line transform="matrix(0,-0.999996,0.999996,0,240,375.999)" style="stroke:rgb(0,0,0);stroke-width:inf;fill:rgb(247,247,255);" y1="69" y2="69" x1="303" x2="312" />
  <line transform="matrix(0,-0.999996,0.999996,0,240,375.999)" style="stroke:rgb(0,0,0);stroke-width:inf;fill:rgb(247,247,255);" y1="69" y2="72" x1="303" x2="308" />
 </g>
 <line transform="matrix(0,-0.999996,0.999996,0,308,84.0003)" style="stroke:rgb(0,0,0);stroke-width:inf;fill:rgb(0,0,0);" y1="0" y2="0" x1="0" x2="8" />
 <text x="324" y="74" transform="matrix(0,-0.999996,0.999996,0,254,391.999)" style="fill:rgb(0,0,0);stroke-width:0;font-size:10px;font-style:normal;font-weight:400;font-family:Sans Serif;" text-anchor="middle" >VCO_OUT[1]</text>
 <polygon points="244 196 307 196 307 259 244 259" transform="matrix(0.999996,0,0,0.999996,0.0013807,0.000676119)" style="stroke:rgb(0,0,0);stroke-width:0.9;fill:rgb(247,247,255);" />
 <polyline points="244 196 307 196 307 259 244 259" transform="matrix(0.999996,0,0,0.999996,0.0013807,0.000676119)" style="stroke:rgb(0,0,0);stroke-width:0.9;fill:none;" />
 <line transform="matrix(0.999996,0,0,0.999996,236,212)" style="stroke:rgb(0,0,0);stroke-width:1;fill:rgb(0,0,0);" y1="0" y2="0" x1="0" x2="8" />
 <line transform="matrix(0.999996,0,0,0.999996,236,228)" style="stroke:rgb(0,0,0);stroke-width:1;fill:rgb(0,0,0);" y1="0" y2="0" x1="0" x2="8" />
 <line transform="matrix(0.999996,0,0,0.999996,236,244)" style="stroke:rgb(0,0,0);stroke-width:1;fill:rgb(0,0,0);" y1="0" y2="0" x1="0" x2="8" />
 <line transform="matrix(-0.999996,0,0,-0.999996,316,228)" style="stroke:rgb(0,0,0);stroke-width:1;fill:rgb(0,0,0);" y1="0" y2="0" x1="0" x2="8" />
 <text x="250" y="215" transform="matrix(0.999996,0,0,0.999996,0.00149592,0.000778735)" style="fill:rgb(0,0,0);stroke-width:0;font-size:10px;font-style:normal;font-weight:400;font-family:Sans Serif;" text-anchor="left" >EN</text>
 <text x="250" y="231" transform="matrix(0.999996,0,0,0.999996,0.00149592,0.000778735)" style="fill:rgb(0,0,0);stroke-width:0;font-size:10px;font-style:normal;font-weight:400;font-family:Sans Serif;" text-anchor="left" >DIV[6]</text>
 <text x="250" y="247" transform="matrix(0.999996,0,0,0.999996,0.00149592,0.000778735)" style="fill:rgb(0,0,0);stroke-width:0;font-size:10px;font-style:normal;font-weight:400;font-family:Sans Serif;" text-anchor="left" >CLK</text>
 <text x="291" y="231" transform="matrix(0.999996,0,0,0.999996,0.00149592,0.000778735)" style="fill:rgb(0,0,0);stroke-width:0;font-size:8px;font-style:normal;font-weight:400;font-family:Sans Serif;" text-anchor="middle" >VCO</text>
 <g style="stroke:rgb(0,0,0);stroke-width:0.9;fill:rgb(247,247,255);" >
  <circle cx="156" cy="68" transform="matrix(0,-0.999996,0.999996,0,88.0011,224)" style="stroke:rgb(0,0,0);stroke-width:0.9;fill:rgb(247,247,255);" r="8" />
  <line transform="matrix(0,-0.999996,0.999996,0,88.0011,224)" style="stroke:rgb(0,0,0);stroke-width:inf;fill:rgb(247,247,255);" y1="66" y2="66" x1="151" x2="160" />
  <line transform="matrix(0,-0.999996,0.999996,0,88.0011,224)" style="stroke:rgb(0,0,0);stroke-width:inf;fill:rgb(247,247,255);" y1="63" y2="66" x1="156" x2="160" />
  <line transform="matrix(0,-0.999996,0.999996,0,88.0011,224)" style="stroke:rgb(0,0,0);stroke-width:inf;fill:rgb(247,247,255);" y1="69" y2="69" x1="151" x2="160" />
  <line transform="matrix(0,-0.999996,0.999996,0,88.0011,224)" style="stroke:rgb(0,0,0);stroke-width:inf;fill:rgb(247,247,255);" y1="69" y2="72" x1="151" x2="156" />
 </g>
 <line transform="matrix(0,-0.999996,0.999996,0,156.001,84.0004)" style="stroke:rgb(0,0,0);stroke-width:inf;fill:rgb(0,0,0);" y1="0" y2="0" x1="0" x2="8" />
 <text x="172" y="74" transform="matrix(0,-0.999995,0.999995,0,102.001,240)" style="fill:rgb(0,0,0);stroke-width:0;font-size:10px;font-style:normal;font-weight:400;font-family:Sans Serif;" text-anchor="middle" >VCO_DIV</text>
 <g style="stroke:rgb(0,0,0);stroke-width:0.9;fill:rgb(247,247,255);" >
  <circle cx="188" cy="68" transform="matrix(0,-0.999995,0.999995,0,120.001,256)" style="stroke:rgb(0,0,0);stroke-width:0.9;fill:rgb(247,247,255);" r="8" />
  <line transform="matrix(0,-0.999995,0.999995,0,120.001,256)" style="stroke:rgb(0,0,0);stroke-width:inf;fill:rgb(247,247,255);" y1="66" y2="66" x1="183" x2="192" />
  <line transform="matrix(0,-0.999995,0.999995,0,120.001,256)" style="stroke:rgb(0,0,0);stroke-width:inf;fill:rgb(247,247,255);" y1="63" y2="66" x1="188" x2="192" />
  <line transform="matrix(0,-0.999995,0.999995,0,120.001,256)" style="stroke:rgb(0,0,0);stroke-width:inf;fill:rgb(247,247,255);" y1="69" y2="69" x1="183" x2="192" />
  <line transform="matrix(0,-0.999995,0.999995,0,120.001,256)" style="stroke:rgb(0,0,0);stroke-width:inf;fill:rgb(247,247,255);" y1="69" y2="72" x1="183" x2="188" />
 </g>
 <line transform="matrix(0,-0.999995,0.999995,0,188.001,84.0004)" style="stroke:rgb(0,0,0);stroke-width:inf;fill:rgb(0,0,0);" y1="0" y2="0" x1="0" x2="8" />
 <text x="203" y="73" transform="matrix(0,-0.999995,0.999995,0,135.001,271)" style="fill:rgb(0,0,0);stroke-width:0;font-size:10px;font-style:normal;font-weight:400;font-family:Sans Serif;" text-anchor="middle" >VCO_ENABLE</text>
 <polygon points="244 292 307 292 307 355 244 355" transform="matrix(0.999995,0,0,0.999995,0.00157671,0.000813053)" style="stroke:rgb(0,0,0);stroke-width:0.9;fill:rgb(247,247,255);" />
 <polyline points="244 292 307 292 307 355 244 355" transform="matrix(0.999995,0,0,0.999995,0.00157671,0.000813053)" style="stroke:rgb(0,0,0);stroke-width:0.9;fill:none;" />
 <line transform="matrix(0.999995,0,0,0.999995,236,307.999)" style="stroke:rgb(0,0,0);stroke-width:1;fill:rgb(0,0,0);" y1="0" y2="0" x1="0" x2="8" />
 <line transform="matrix(-0.999995,0,0,-0.999995,316,323.999)" style="stroke:rgb(0,0,0);stroke-width:1.00001;fill:rgb(0,0,0);" y1="0" y2="0" x1="0" x2="8" />
 <line transform="matrix(0.999995,0,0,0.999995,236,323.999)" style="stroke:rgb(0,0,0);stroke-width:1.00001;fill:rgb(0,0,0);" y1="0" y2="0" x1="0" x2="8" />
 <line transform="matrix(0.999995,0,0,0.999995,236,339.999)" style="stroke:rgb(0,0,0);stroke-width:1.00001;fill:rgb(0,0,0);" y1="0" y2="0" x1="0" x2="8" />
 <text x="258" y="311" transform="matrix(0.999995,0,0,0.999995,0.00169193,0.000958875)" style="fill:rgb(0,0,0);stroke-width:0;font-size:10px;font-style:normal;font-weight:400;font-family:Sans Serif;" text-anchor="middle" >A0</text>
 <text x="287" y="327" transform="matrix(0.999995,0,0,0.999995,0.00169193,0.000958875)" style="fill:rgb(0,0,0);stroke-width:0;font-size:8px;font-style:normal;font-weight:400;font-family:Sans Serif;" text-anchor="middle" >OUTPUT1</text>
 <text x="258" y="327" transform="matrix(0.999995,0,0,0.999995,0.00169193,0.000958875)" style="fill:rgb(0,0,0);stroke-width:0;font-size:10px;font-style:normal;font-weight:400;font-family:Sans Serif;" text-anchor="middle" >X0</text>
 <text x="258" y="343" transform="matrix(0.999995,0,0,0.999995,0.00169193,0.000958875)" style="fill:rgb(0,0,0);stroke-width:0;font-size:10px;font-style:normal;font-weight:400;font-family:Sans Serif;" text-anchor="middle" >X1</text>
 <g style="stroke:rgb(0,0,0);stroke-width:0.9;fill:rgb(247,247,255);" >
  <circle cx="36" cy="68" transform="matrix(0,-0.999995,0.999995,0,-31.9981,104)" style="stroke:rgb(0,0,0);stroke-width:0.9;fill:rgb(247,247,255);" r="8" />
  <line transform="matrix(0,-0.999995,0.999995,0,-31.9981,104)" style="stroke:rgb(0,0,0);stroke-width:inf;fill:rgb(247,247,255);" y1="66" y2="66" x1="31" x2="40" />
  <line transform="matrix(0,-0.999995,0.999995,0,-31.9981,104)" style="stroke:rgb(0,0,0);stroke-width:inf;fill:rgb(247,247,255);" y1="63" y2="66" x1="36" x2="40" />
  <line transform="matrix(0,-0.999995,0.999995,0,-31.9981,104)" style="stroke:rgb(0,0,0);stroke-width:inf;fill:rgb(247,247,255);" y1="69" y2="69" x1="31" x2="40" />
  <line transform="matrix(0,-0.999995,0.999995,0,-31.9981,104)" style="stroke:rgb(0,0,0);stroke-width:inf;fill:rgb(247,247,255);" y1="69" y2="72" x1="31" x2="36" />
 </g>
 <line transform="matrix(0,-0.999995,0.999995,0,36.0015,84.0005)" style="stroke:rgb(0,0,0);stroke-width:inf;fill:rgb(0,0,0);" y1="0" y2="0" x1="0" x2="8" />
 <text x="51" y="73" transform="matrix(0,-0.999995,0.999995,0,-16.9982,119)" style="fill:rgb(0,0,0);stroke-width:0;font-size:10px;font-style:normal;font-weight:400;font-family:Sans Serif;" text-anchor="middle" >OUTPUT1</text>
 <rect width="32" x="148" y="316" height="16" transform="matrix(0.999994,0,0,0.999994,0.00170172,0.000975978)" style="stroke:rgb(0,0,0);stroke-width:0.9;fill:rgb(247,247,255);" />
 <line transform="matrix(0.999994,0,0,0.999994,0.00170172,0.000975978)" style="stroke:rgb(0,0,0);stroke-width:0.900005;fill:rgb(247,247,255);" y1="324" y2="320" x1="154" x2="154" />
 <line transform="matrix(0.999994,0,0,0.999994,0.00170172,0.000975978)" style="stroke:rgb(0,0,0);stroke-width:0.900005;fill:rgb(247,247,255);" y1="320" y2="320" x1="154" x2="158" />
 <line transform="matrix(0.999994,0,0,0.999994,0.00170172,0.000975978)" style="stroke:rgb(0,0,0);stroke-width:0.900005;fill:rgb(247,247,255);" y1="320" y2="328" x1="158" x2="158" />
 <line transform="matrix(0.999994,0,0,0.999994,0.00170172,0.000975978)" style="stroke:rgb(0,0,0);stroke-width:0.900005;fill:rgb(247,247,255);" y1="328" y2="328" x1="158" x2="162" />
 <line transform="matrix(0.999994,0,0,0.999994,0.00170172,0.000975978)" style="stroke:rgb(0,0,0);stroke-width:0.900005;fill:rgb(247,247,255);" y1="328" y2="320" x1="162" x2="162" />
 <line transform="matrix(0.999994,0,0,0.999994,0.00170172,0.000975978)" style="stroke:rgb(0,0,0);stroke-width:0.900005;fill:rgb(247,247,255);" y1="320" y2="320" x1="162" x2="166" />
 <line transform="matrix(0.999994,0,0,0.999994,0.00170172,0.000975978)" style="stroke:rgb(0,0,0);stroke-width:0.900005;fill:rgb(247,247,255);" y1="320" y2="328" x1="166" x2="166" />
 <line transform="matrix(0.999994,0,0,0.999994,0.00170172,0.000975978)" style="stroke:rgb(0,0,0);stroke-width:0.900005;fill:rgb(247,247,255);" y1="328" y2="328" x1="166" x2="170" />
 <line transform="matrix(0.999994,0,0,0.999994,0.00170172,0.000975978)" style="stroke:rgb(0,0,0);stroke-width:0.900005;fill:rgb(247,247,255);" y1="328" y2="320" x1="170" x2="170" />
 <line transform="matrix(0.999994,0,0,0.999994,0.00170172,0.000975978)" style="stroke:rgb(0,0,0);stroke-width:0.900005;fill:rgb(247,247,255);" y1="320" y2="320" x1="170" x2="174" />
 <line transform="matrix(0.999994,0,0,0.999994,0.00170172,0.000975978)" style="stroke:rgb(0,0,0);stroke-width:0.900005;fill:rgb(247,247,255);" y1="320" y2="324" x1="174" x2="174" />
 <line transform="matrix(-0.999994,0,0,-0.999994,188.001,323.999)" style="stroke:rgb(0,0,0);stroke-width:1.00001;fill:rgb(0,0,0);" y1="0" y2="0" x1="0" x2="8" />
 <text x="163" y="311" transform="matrix(0.999994,0,0,0.999994,0.00172287,0.00101243)" style="fill:rgb(0,0,0);stroke-width:0;font-size:10px;font-style:normal;font-weight:400;font-family:Sans Serif;" text-anchor="middle" >100MHz</text>
 <rect width="32" x="148" y="356" height="16" transform="matrix(0.999994,0,0,0.999994,0.00172287,0.00101243)" style="stroke:rgb(0,0,0);stroke-width:0.9;fill:rgb(247,247,255);" />
 <line transform="matrix(0.999994,0,0,0.999994,0.00172287,0.00101243)" style="stroke:rgb(0,0,0);stroke-width:0.900005;fill:rgb(247,247,255);" y1="364" y2="360" x1="154" x2="154" />
 <line transform="matrix(0.999994,0,0,0.999994,0.00172287,0.00101243)" style="stroke:rgb(0,0,0);stroke-width:0.900005;fill:rgb(247,247,255);" y1="360" y2="360" x1="154" x2="158" />
 <line transform="matrix(0.999994,0,0,0.999994,0.00172287,0.00101243)" style="stroke:rgb(0,0,0);stroke-width:0.900005;fill:rgb(247,247,255);" y1="360" y2="368" x1="158" x2="158" />
 <line transform="matrix(0.999994,0,0,0.999994,0.00172287,0.00101243)" style="stroke:rgb(0,0,0);stroke-width:0.900005;fill:rgb(247,247,255);" y1="368" y2="368" x1="158" x2="162" />
 <line transform="matrix(0.999994,0,0,0.999994,0.00172287,0.00101243)" style="stroke:rgb(0,0,0);stroke-width:0.900005;fill:rgb(247,247,255);" y1="368" y2="360" x1="162" x2="162" />
 <line transform="matrix(0.999994,0,0,0.999994,0.00172287,0.00101243)" style="stroke:rgb(0,0,0);stroke-width:0.900005;fill:rgb(247,247,255);" y1="360" y2="360" x1="162" x2="166" />
 <line transform="matrix(0.999994,0,0,0.999994,0.00172287,0.00101243)" style="stroke:rgb(0,0,0);stroke-width:0.900005;fill:rgb(247,247,255);" y1="360" y2="368" x1="166" x2="166" />
 <line transform="matrix(0.999994,0,0,0.999994,0.00172287,0.00101243)" style="stroke:rgb(0,0,0);stroke-width:0.900005;fill:rgb(247,247,255);" y1="368" y2="368" x1="166" x2="170" />
 <line transform="matrix(0.999994,0,0,0.999994,0.00172287,0.00101243)" style="stroke:rgb(0,0,0);stroke-width:0.900005;fill:rgb(247,247,255);" y1="368" y2="360" x1="170" x2="170" />
 <line transform="matrix(0.999994,0,0,0.999994,0.00172287,0.00101243)" style="stroke:rgb(0,0,0);stroke-width:0.900005;fill:rgb(247,247,255);" y1="360" y2="360" x1="170" x2="174" />
 <line transform="matrix(0.999994,0,0,0.999994,0.00172287,0.00101243)" style="stroke:rgb(0,0,0);stroke-width:0.900005;fill:rgb(247,247,255);" y1="360" y2="364" x1="174" x2="174" />
 <line transform="matrix(-0.999994,0,0,-0.999994,188.001,363.999)" style="stroke:rgb(0,0,0);stroke-width:1.00001;fill:rgb(0,0,0);" y1="0" y2="0" x1="0" x2="8" />
 <text x="163" y="351" transform="matrix(0.999994,0,0,0.999994,0.00174402,0.00105339)" style="fill:rgb(0,0,0);stroke-width:0;font-size:10px;font-style:normal;font-weight:400;font-family:Sans Serif;" text-anchor="middle" >108MHz</text>
 <g style="stroke:rgb(0,0,0);stroke-width:0.9;fill:rgb(247,247,255);" >
  <circle cx="484" cy="68" transform="matrix(0,-0.999994,0.999994,0,415.999,551.998)" style="stroke:rgb(0,0,0);stroke-width:0.9;fill:rgb(247,247,255);" r="8" />
  <line transform="matrix(0,-0.999994,0.999994,0,415.999,551.998)" style="stroke:rgb(0,0,0);stroke-width:inf;fill:rgb(247,247,255);" y1="66" y2="66" x1="479" x2="488" />
  <line transform="matrix(0,-0.999994,0.999994,0,415.999,551.998)" style="stroke:rgb(0,0,0);stroke-width:inf;fill:rgb(247,247,255);" y1="63" y2="66" x1="484" x2="488" />
  <line transform="matrix(0,-0.999994,0.999994,0,415.999,551.998)" style="stroke:rgb(0,0,0);stroke-width:inf;fill:rgb(247,247,255);" y1="69" y2="69" x1="479" x2="488" />
  <line transform="matrix(0,-0.999994,0.999994,0,415.999,551.998)" style="stroke:rgb(0,0,0);stroke-width:inf;fill:rgb(247,247,255);" y1="69" y2="72" x1="479" x2="484" />
 </g>
 <line transform="matrix(0,-0.999994,0.999994,0,483.999,84.0006)" style="stroke:rgb(0,0,0);stroke-width:inf;fill:rgb(0,0,0);" y1="0" y2="0" x1="0" x2="8" />
 <text x="499" y="73" transform="matrix(0,-0.999994,0.999994,0,430.999,566.998)" style="fill:rgb(0,0,0);stroke-width:0;font-size:10px;font-style:normal;font-weight:400;font-family:Sans Serif;" text-anchor="middle" >OUT_ALT</text>
 <g style="stroke:rgb(0,0,0);stroke-width:0.9;fill:rgb(247,247,255);" >
  <polygon points="228 108 238 116 228 124" transform="matrix(0,0.999994,-0.999994,0,352,-119.998)" style="stroke:rgb(0,0,0);stroke-width:0.9;fill:rgb(247,247,255);" />
  <polyline points="228 108 238 116 228 124" transform="matrix(0,0.999994,-0.999994,0,352,-119.998)" style="stroke:rgb(0,0,0);stroke-width:0.9;fill:none;" />
  <circle cx="241.5" cy="116.5" transform="matrix(0,0.999994,-0.999994,0,352,-119.998)" style="stroke:rgb(0,0,0);stroke-width:0.9;fill:rgb(247,247,255);" r="3.5" />
 </g>
 <line transform="matrix(0,0.999994,-0.999994,0,236,100)" style="stroke:rgb(0,0,0);stroke-width:inf;fill:rgb(0,0,0);" y1="0" y2="0" x1="0" x2="8" />
 <line transform="matrix(0,-0.999994,0.999994,0,236,132)" style="stroke:rgb(0,0,0);stroke-width:inf;fill:rgb(0,0,0);" y1="0" y2="0" x1="0" x2="8" />
</svg>
